<?xml version="1.0" standalone="no"?>
<!DOCTYPE svg PUBLIC "-//W3C//DTD SVG 20010904//EN"
 "http://www.w3.org/TR/2001/REC-SVG-20010904/DTD/svg10.dtd">
<svg version="1.0" xmlns="http://www.w3.org/2000/svg"
 width="213.000000pt" height="213.000000pt" viewBox="0 0 213.000000 213.000000"
 preserveAspectRatio="xMidYMid meet">
<metadata>
Created by potrace 1.11, written by Peter Selinger 2001-2013
</metadata>
<g transform="translate(0.000000,213.000000) scale(0.100000,-0.100000)"
fill="#000000" stroke="none">
<path d="M968 2050 c-69 -12 -84 -38 -123 -222 l-17 -78 -81 -40 c-115 -58
-264 -160 -366 -253 -52 -47 -107 -140 -169 -286 -35 -84 -36 -89 -36 -216 0
-142 15 -220 60 -313 49 -100 215 -302 248 -302 34 0 384 -191 454 -247 l43
-35 166 6 c211 8 240 13 260 42 8 13 24 26 34 29 11 4 22 19 26 36 3 16 11 34
19 40 9 7 12 24 8 52 -5 37 -2 45 23 68 15 14 60 44 99 67 168 97 272 232 326
420 19 63 23 102 23 222 l0 145 -36 75 c-66 137 -190 274 -339 374 -109 73
-164 96 -278 117 -137 25 -135 24 -155 59 -17 28 -17 33 3 114 21 88 19 115
-9 117 -9 0 -27 2 -41 4 -63 9 -108 11 -142 5z"/>
</g>
</svg>
